<svg xmlns:dc="http://purl.org/dc/elements/1.1/" xmlns:cc="http://creativecommons.org/ns#" xmlns:rdf="http://www.w3.org/1999/02/22-rdf-syntax-ns#" xmlns:svg="http://www.w3.org/2000/svg" xmlns="http://www.w3.org/2000/svg" xmlns:sodipodi="http://sodipodi.sourceforge.net/DTD/sodipodi-0.dtd" xmlns:inkscape="http://www.inkscape.org/namespaces/inkscape" width="170px" viewBox="0 0 339.46043 83.872919" version="1.1" id="svg20384" inkscape:version="0.92.5 (2060ec1f9f, 2020-04-08)" sodipodi:docname="Raleo-Logo.svg" aria-label="Homepage" class="mt-2" data-v-e9e9ff56=""><defs id="defs20378"></defs> <sodipodi:namedview id="base" pagecolor="#ffffff" bordercolor="#666666" borderopacity="1.0" inkscape:pageopacity="0.0" inkscape:pageshadow="2" inkscape:zoom="0.49497475" inkscape:cx="697.357" inkscape:cy="69.299632" inkscape:document-units="mm" inkscape:current-layer="g20475" showgrid="false" inkscape:pagecheckerboard="true" inkscape:window-x="72" inkscape:window-y="27" inkscape:window-maximized="1" units="px"></sodipodi:namedview> <metadata id="metadata20381"><rdf:rdf><cc:work rdf:about=""><dc:format>image/svg+xml</dc:format> <dc:type rdf:resource="http://purl.org/dc/dcmitype/StillImage"></dc:type> <dc:title></dc:title></cc:work></rdf:rdf></metadata> <g inkscape:label="Layer 1" inkscape:groupmode="layer" id="layer1" transform="translate(0,-213.12708)"><g id="g20475" transform="matrix(0.26458333,0,0,0.26458333,-38.17559,-87.026453)"><path id="path20453" d="m 322.73022,1408.6037 c 0,3.4796 -1.28681,6.5883 -3.87737,9.2908 -2.59056,2.7023 -5.53669,4.0625 -8.88917,4.0625 -3.21703,0 -6.14622,-1.3249 -8.78758,-3.9919 l -99.28786,-103.5752 c -3.23396,-3.1439 -5.07953,-5.9876 -5.55362,-8.5312 v 102.8333 c 0,8.8315 -4.19907,13.2472 -12.59722,13.2472 -8.41509,0 -12.61416,-4.4157 -12.61416,-13.2472 v -237.3891 c 0,-8.7078 4.16521,-13.0705 12.51257,-13.0705 h 63.29091 c 20.97846,0 38.85841,7.7541 53.63983,23.2444 14.78143,15.4902 22.16367,34.1423 22.16367,55.9384 0,21.7959 -7.38224,40.4302 -22.14674,55.9205 -14.7645,15.4905 -32.61057,23.2445 -53.57209,23.2445 l -7.2976,-0.1237 79.39304,82.9624 c 2.42124,2.7556 3.62339,5.8289 3.62339,9.1848 z m -25.21138,-171.1179 c 0,-14.5543 -4.961,-27.0242 -14.88303,-37.3923 -9.92201,-10.3681 -21.8589,-15.561 -35.79375,-15.561 h -50.50744 v 116.628 c 1.15137,-7.2594 6.16317,-10.8804 14.98461,-10.8804 H 246.859 c 13.93484,0 25.8548,-5.1575 35.79375,-15.4728 9.90509,-10.315 14.86609,-22.7673 14.86609,-37.3215 z" style="fill:#3d3d3d;stroke-width:1;"></path> <path id="path20457" d="m 769.76259,1408.7098 c 0,8.8314 -4.16521,13.2472 -12.51257,13.2472 H 630.83749 c -3.35248,0 -6.31554,-1.3249 -8.8553,-3.9919 -2.5567,-2.6671 -3.82659,-5.7582 -3.82659,-9.2553 v -237.2302 c 0,-8.8314 4.19909,-13.2472 12.61417,-13.2472 8.39816,0 12.59723,4.4158 12.59723,13.2472 v 224.1595 h 113.8661 c 8.34735,0 12.52949,4.3627 12.52949,13.0707 z" style="fill:#3d3d3d;stroke-width:1;"></path> <path id="path20459" d="M 942.56816,1395.6391 H 828.68513 v -211.1066 h 113.88303 c 8.34735,0 12.54647,-4.3451 12.54647,-13.0529 0,-8.8491 -4.19912,-13.2648 -12.5126,-13.2648 H 816.17256 c -3.36942,0 -6.29862,1.3247 -8.85531,3.9917 -2.5567,2.6672 -3.82658,5.7582 -3.82658,9.2731 v 237.2124 c 0,3.5149 1.26988,6.606 3.82658,9.2731 2.55669,2.667 5.46896,3.9919 8.85531,3.9919 h 126.42947 c 8.31348,0 12.5126,-4.4158 12.5126,-13.2297 0,-8.7255 -4.19912,-13.0882 -12.54647,-13.0882 z" style="fill:#3d3d3d;stroke-width:1;"></path> <path id="path20461" d="m 1224.6513,1285.6525 c 0,-1.3778 -0.034,-2.7555 -0.1695,-4.0802 0,-1.1127 -0.085,-2.2255 -0.203,-3.3558 -0.034,-1.1129 -0.1694,-2.1903 -0.2879,-3.2678 0,-0.2118 0,-0.4238 -0.034,-0.6359 -0.034,-0.4239 -0.085,-0.8655 -0.1695,-1.2892 -0.1184,-1.4132 -0.3216,-2.7909 -0.5417,-4.2039 v -0.1236 c -0.7789,-5.4049 -1.8964,-10.7391 -3.3356,-15.879 -0.3217,-1.3247 -0.6942,-2.6141 -1.1513,-3.9033 -0.1694,-0.7243 -0.4063,-1.4662 -0.6942,-2.155 -0.2541,-0.8655 -0.5419,-1.7133 -0.8637,-2.5789 -0.4908,-1.466 -1.0327,-2.8789 -1.5575,-4.292 -0.084,-0.212 -0.1186,-0.3886 -0.2541,-0.5653 -0.745,-1.8899 -1.5238,-3.7268 -2.3873,-5.5814 -0.8296,-1.8899 -1.7271,-3.7799 -2.76,-5.6169 -0.8296,-1.6779 -1.7269,-3.2675 -2.6752,-4.8926 -0.2877,-0.5651 -0.6095,-1.1127 -1.0328,-1.6778 -0.7788,-1.3778 -1.6423,-2.7909 -2.5567,-4.1156 -0.084,-0.2649 -0.2539,-0.5122 -0.491,-0.7241 -0.8635,-1.4131 -1.8456,-2.7907 -2.8446,-4.1684 -0.2031,-0.3887 -0.4909,-0.7771 -0.7788,-1.1129 -1.0667,-1.466 -2.1334,-2.8789 -3.2847,-4.292 -0.084,-0.1767 -0.2541,-0.3885 -0.4064,-0.5651 -0.9821,-1.2365 -2.0149,-2.4905 -3.0817,-3.6917 -1.7269,-2.0136 -3.5386,-4.0447 -5.4349,-6.0054 -7.738,-8.0718 -15.9667,-14.8543 -24.6866,-20.4005 -19.1835,-12.1874 -40.7039,-18.2811 -64.5778,-18.2811 -21.7234,0 -41.5336,5.0692 -59.3458,15.1194 -10.7009,6.0583 -20.7074,13.9183 -29.9692,23.5622 -1.5578,1.625 -3.0477,3.2677 -4.4869,4.8927 -1.7778,1.9784 -3.4202,3.992 -5.02869,6.0584 -1.0328,1.3247 -2.0657,2.6671 -3.0477,4.027 -0.084,0.088 -0.1185,0.1767 -0.1693,0.2121 -1.1853,1.6249 -2.35359,3.3029 -3.45409,5.0163 -0.084,0.088 -0.1186,0.1766 -0.1694,0.2648 -0.982,1.5014 -1.9301,3.0911 -2.8783,4.6454 -0.2032,0.3002 -0.3726,0.6005 -0.5418,0.9008 -4.14827,7.1182 -7.56859,14.5896 -10.20988,22.3613 -0.0845,0.1766 -0.11848,0.3355 -0.16927,0.5121 -0.5757,1.6251 -1.1175,3.303 -1.55772,4.9811 -0.49111,1.5895 -0.94823,3.2144 -1.32076,4.8572 -0.37243,1.3777 -0.69417,2.7907 -0.98203,4.2038 -0.11847,0.4239 -0.20316,0.9008 -0.28784,1.3246 -0.25396,1.2365 -0.49102,2.5259 -0.69418,3.7799 -0.28785,1.5013 -0.5418,3.0557 -0.74497,4.5923 -0.034,0.265 -0.0845,0.5653 -0.11858,0.8125 -0.20316,1.4131 -0.37243,2.8261 -0.45712,4.2567 -0.11857,0.9009 -0.20315,1.8547 -0.28784,2.7555 -0.16927,1.9783 -0.28785,3.9564 -0.37253,5.9171 -0.11848,2.2256 -0.16927,4.4687 -0.16927,6.7472 0,1.8016 0.034,3.568 0.11847,5.3165 0.034,1.1128 0.0845,2.2256 0.16937,3.356 0.11849,2.0665 0.25396,4.0801 0.45712,6.0937 0.20317,1.9781 0.40642,3.9035 0.69418,5.8817 0,0.1236 0.034,0.3003 0.034,0.4239 0.5757,3.8152 1.26989,7.5597 2.09953,11.2513 0.6096,2.5787 1.26987,5.1046 2.01494,7.5598 0.45712,1.5895 0.94813,3.1793 1.48994,4.7689 0.034,0.088 0.0845,0.212 0.11857,0.3003 0.60949,1.8545 1.32067,3.6915 2.06559,5.546 0,0.1237 0.034,0.212 0.11858,0.3356 0.69417,1.8016 1.48993,3.6033 2.30269,5.3695 0.034,0.1767 0.11848,0.3886 0.25395,0.5653 0.77886,1.7134 1.60849,3.4265 2.50596,5.1045 0.0337,0.1767 0.11845,0.3356 0.25396,0.477 0.57567,1.201 1.23596,2.3668 1.89634,3.5148 0.6942,1.2365 1.4054,2.4906 2.1842,3.6916 0.034,0.1236 0.1185,0.265 0.254,0.3887 0.8974,1.5543 1.8963,3.0909 2.9291,4.5922 0.084,0.1237 0.2032,0.3003 0.2879,0.424 1.03279,1.5013 2.09949,3.0557 3.21699,4.5041 3.53869,4.7689 7.41609,9.3612 11.68289,13.83 4.3684,4.5039 8.8553,8.6371 13.4947,12.364 20.4535,16.4089 43.9209,25.1165 70.3345,26.141 v -26.3176 c -20.4198,-1.0244 -38.6044,-7.7717 -54.4865,-20.2595 -1.3207,-1.0774 -2.6413,-2.1548 -3.9451,-3.2675 -2.5905,-2.2785 -5.1473,-4.6807 -7.6192,-7.2596 -2.76,-2.8789 -5.3167,-5.7933 -7.6194,-8.849 -0.8635,-1.0244 -1.6931,-2.1019 -2.4212,-3.1793 -1.8117,-2.4905 -3.5049,-5.0163 -5.0626,-7.648 -0.4064,-0.7243 -0.8635,-1.466 -1.236,-2.1903 -0.4572,-0.7241 -0.8635,-1.5013 -1.236,-2.2254 -0.3725,-0.689 -0.7451,-1.3777 -1.0667,-2.0666 -0.4064,-0.7243 -0.7789,-1.5014 -1.1514,-2.3139 -0.254,-0.6004 -0.5417,-1.2011 -0.8296,-1.8545 -0.3725,-0.8656 -0.745,-1.7134 -1.1175,-2.6142 -0.8297,-1.9782 -1.5577,-3.9565 -2.2689,-6.0054 -0.3725,-1.0244 -0.6942,-2.1019 -1.0329,-3.1793 -0.2538,-0.8125 -0.4909,-1.5896 -0.6941,-2.4021 -0.4064,-1.5014 -0.7788,-3.0558 -1.15139,-4.5571 -0.3217,-1.5543 -0.6604,-3.0909 -0.9481,-4.6805 -0.8297,-4.6808 -1.4053,-9.485 -1.6424,-14.4305 -0.034,-0.689 -0.084,-1.3778 -0.1185,-2.0668 -0.084,-1.4659 -0.084,-2.9673 -0.084,-4.4686 0,-1.7663 0.034,-3.5679 0.1184,-5.2812 v -0.3003 c 0.084,-1.5013 0.1694,-2.9674 0.2879,-4.4158 0.1186,-1.3776 0.254,-2.7024 0.4065,-4.0448 v -0.035 c 0.1184,-1.1127 0.2876,-2.2256 0.457,-3.356 0.084,-0.6358 0.2031,-1.2894 0.3218,-1.9252 0.1692,-1.1128 0.3724,-2.1548 0.5756,-3.2147 0.254,-1.4131 0.5756,-2.7907 0.89739,-4.1685 0.4571,-1.8544 0.8973,-3.6563 1.4899,-5.4578 0.3217,-1.1658 0.6943,-2.3137 1.1175,-3.4265 0,-0.035 0,-0.088 0.034,-0.1237 0.4572,-1.3777 0.9483,-2.7024 1.4394,-3.9918 0.4909,-1.2894 1.0328,-2.5258 1.6084,-3.78 0.3724,-0.9359 0.7789,-1.8545 1.236,-2.7553 0.034,-0.1766 0.1185,-0.3355 0.2539,-0.5122 0.5419,-1.1657 1.1175,-2.3137 1.7271,-3.4266 1.3207,-2.4906 2.709,-4.9456 4.2838,-7.3478 0.6942,-1.1128 1.4391,-2.1901 2.1842,-3.2676 0.6095,-0.9008 1.236,-1.7663 1.8455,-2.5787 0.6095,-0.8656 1.236,-1.6781 1.8964,-2.4906 0.7789,-0.989 1.5238,-1.9252 2.3536,-2.8789 0.6941,-0.8656 1.4052,-1.678 2.1333,-2.4905 0.9482,-1.0775 1.9809,-2.1903 2.9969,-3.2678 2.4721,-2.5786 5.0288,-5.0162 7.6194,-7.2594 1.3205,-1.1657 2.6412,-2.2256 3.945,-3.2676 5.3165,-4.2038 10.9041,-7.7715 16.7117,-10.6507 13.1729,-6.5176 27.5818,-9.7852 43.2606,-9.7852 15.6788,0 30.0878,3.2676 43.176,9.7852 5.8414,2.8792 11.4459,6.4469 16.7455,10.6507 1.3546,1.0245 2.6753,2.1019 3.9451,3.2676 2.5905,2.2256 5.1472,4.6808 7.6194,7.2594 1.2359,1.2895 2.4212,2.579 3.5726,3.9036 1.1852,1.3247 2.3027,2.6671 3.3694,4.0449 1.1175,1.3776 2.1334,2.7554 3.1322,4.1154 0.9822,1.3247 1.9304,2.6671 2.7938,4.0448 1.6932,2.5787 3.251,5.2458 4.6902,7.9482 0.4571,0.8656 0.8974,1.7134 1.3206,2.5788 1.236,2.4552 2.3874,4.9809 3.3694,7.5067 0.6095,1.5898 1.1853,3.1264 1.7271,4.716 0.3725,1.0776 0.6942,2.155 1.0328,3.2147 0.3725,1.2011 0.745,2.4551 1.0328,3.6563 0.084,0.212 0.1186,0.3884 0.1695,0.5651 0.3217,1.2365 0.6094,2.4905 0.8634,3.7269 0.6096,2.6671 1.1175,5.4047 1.49,8.1603 0.1694,1.0245 0.2879,2.0665 0.3725,3.091 0.3725,3.0909 0.5758,6.2174 0.6603,9.3967 0.084,1.2893 0.084,2.5787 0.084,3.8681 0,29.1438 -9.8712,54.0485 -29.6813,74.6963 -4.9781,5.1575 -10.1591,9.6969 -15.6451,13.5652 -5.435,3.8151 -11.158,7.0474 -17.0841,9.6085 -2.9969,1.2894 -6.0954,2.4552 -9.1771,3.4267 -3.0814,0.9359 -6.2139,1.7132 -9.431,2.3666 -4.7746,0.9363 -9.6679,1.5368 -14.7305,1.8017 v 26.3178 c 26.4305,-1.0245 49.8809,-9.75 70.3345,-26.1411 4.6563,-3.727 9.177,-7.8599 13.4946,-12.364 24.7373,-25.8055 37.1314,-56.8921 37.1314,-93.2954 0.034,-1.413 0.034,-2.879 -0.1011,-4.292 z" class="st0" style="fill:#3d3d3d;stroke-width:1;"></path> <polyline id="polyline20463" points="347.2,529.53 361.64,558.26 362.63,560.28  " transform="matrix(1.6931762,0,0,1.7662881,-54.069153,406.92419)" style="fill:#1f86d4;stroke-width:0.57825339;"></polyline> <g id="g20500" transform="matrix(1.6931762,0,0,1.7662881,-191.94209,424.58708)" style="fill:#1f86d4;stroke-width:0.57825339;fill-opacity:1;"><path d="m 462.53857,553.92 -66.46,-133.01 c -1.77,-3.72 -4.23,-5.57 -7.32,-5.57 -3.11,0 -5.57,1.85 -7.34,5.52 l -66.46,132.91 c -0.63,1.17 -0.92,2.36 -0.92,3.6 0,1.99 0.8,3.69 2.41,5.13 1.63,1.46 3.48,2.16 5.54,2.16 2.87,0 5.01,-1.36 6.37,-4.08 l 5.98,-11.93 14.58,-29.12 19.4,-38.79 20.47,-40.88 25.04,50.17 14.8,29.51 c 0.02,0 0.02,0 0.05,0 l 14.39,28.73 1,2.02 5.15,10.31 c 1.39,2.72 3.55,4.08 6.49,4.08 2.02,0 3.82,-0.7 5.42,-2.14 1.63,-1.41 2.43,-3.09 2.43,-5.06 0,-1.22 -0.34,-2.42 -1.02,-3.56 z" id="path20455" class="st1" style="fill:#1f86d4;stroke-width:0.57825339;fill-opacity:1;"></path> <line x1="334.33856" y1="548.65002" x2="348.91855" y2="519.53003" id="line20465" style="fill:#1f86d4;stroke-width:0.57825339;fill-opacity:1;"></line> <path d="m 314.03857,558.23 c 280.54,-113.59 634.39,-69.59 634.39,-69.59 -386.4,-13.29 -624.4,75.78 -624.4,75.78 z" id="path20467" style="fill:#1f86d4;stroke-width:0.57825339;fill-opacity:1;"></path></g> <path id="path20469" d="m 1224.6513,1285.9174 c -8.4829,0.1414 -16.881,0.3178 -25.1945,0.4944 -0.1186,-4.4155 -0.4571,-8.7607 -1.0329,-12.9998 8.72,0.1766 17.2027,0.4063 25.5162,0.7066 0.4233,3.8328 0.6774,7.7716 0.7112,11.7988 z" style="fill:#3d3d3d;stroke-width:1;"></path> <path id="path20471" d="m 1092.922,1395.6569 v 26.2823 H 983.23825 c -6.21394,0 -11.27653,-5.2459 -11.27653,-11.7634 v -2.7555 c 0,-6.4823 5.06259,-11.7634 11.27653,-11.7634 z" style="fill:#3d3d3d;stroke-width:1;"></path> <path id="path20473" d="m 1224.7867,1407.4203 v 2.7555 c 0,6.5175 -5.0626,11.7634 -11.3105,11.7634 h -109.6331 v -26.2823 h 109.6331 c 6.2479,0 11.3105,5.2811 11.3105,11.7634 z" style="fill:#3d3d3d;stroke-width:1;"></path></g></g></svg>